<svg width="708.7" height="75.701" viewBox="0 0 708.7 75.701" xmlns="http://www.w3.org/2000/svg"><g id="svgGroup" stroke-linecap="round" fill-rule="evenodd" font-size="9pt" stroke="#000" stroke-width="0.25mm" fill="#000" style="stroke:#000;stroke-width:0.25mm;fill:#000"><path d="M 388.9 74.7 L 388.9 1.2 L 399.4 1.2 L 399.4 28.8 L 399 37.3 Q 400.9 33.1 405.1 30.35 A 16.837 16.837 0 0 1 412.683 27.713 A 21.208 21.208 0 0 1 414.9 27.6 A 27.461 27.461 0 0 1 419.015 27.888 Q 421.167 28.215 422.903 28.912 A 11.961 11.961 0 0 1 425.8 30.55 A 13.727 13.727 0 0 1 430.212 36.594 A 18.098 18.098 0 0 1 430.9 38.8 A 38.052 38.052 0 0 1 431.64 42.822 Q 432.2 47.022 432.2 52.6 L 432.2 74.7 L 421.5 74.7 L 421.5 52.5 Q 421.5 46.7 420.85 43.4 Q 420.2 40.1 418.25 38.4 Q 416.672 37.025 413.949 36.762 A 14.067 14.067 0 0 0 412.6 36.7 A 10.845 10.845 0 0 0 408.641 37.475 A 14.408 14.408 0 0 0 406.55 38.5 Q 403.5 40.3 401.5 43.75 A 14.646 14.646 0 0 0 399.736 48.816 A 19.389 19.389 0 0 0 399.5 51.9 L 399.5 74.7 L 388.9 74.7 Z M 592.9 48 L 610.3 74.7 L 597.6 74.7 L 588.3 59.7 L 585.7 54.6 L 579.7 61.1 L 579.7 74.7 L 569.3 74.7 L 569.3 1.2 L 579.6 1.2 L 579.6 41.5 L 579.4 49.3 L 596.9 28.8 L 610.2 28.8 L 592.9 48 Z M 544.4 37.3 L 543.9 29.5 L 543.9 1.2 L 554.5 1.2 L 554.5 74.7 L 544.2 74.7 L 544 66.6 Q 542.513 69.75 538.881 72.249 A 23.759 23.759 0 0 1 537.8 72.95 Q 533.3 75.7 527.7 75.7 Q 521.5 75.7 516.25 72.75 Q 511 69.8 507.85 64.35 A 23.297 23.297 0 0 1 505.008 55.982 A 30.225 30.225 0 0 1 504.7 51.6 A 31.589 31.589 0 0 1 505.54 44.109 A 21.957 21.957 0 0 1 510.8 34.15 A 20.183 20.183 0 0 1 522.808 27.936 A 28.871 28.871 0 0 1 527.3 27.6 Q 533.1 27.6 537.9 30.45 A 19.807 19.807 0 0 1 541.05 32.736 Q 543.334 34.792 544.4 37.3 Z M 185.2 54.5 L 185.2 28.8 L 196 28.8 L 196 51.8 Q 196 56.943 196.529 60.01 A 19.973 19.973 0 0 0 196.65 60.65 A 10.427 10.427 0 0 0 197.25 62.621 Q 197.745 63.786 198.505 64.615 A 5.823 5.823 0 0 0 199.25 65.3 A 6.216 6.216 0 0 0 201.071 66.243 Q 201.942 66.537 203.015 66.676 A 16.288 16.288 0 0 0 205.1 66.8 A 9.943 9.943 0 0 0 209.765 65.618 A 12.149 12.149 0 0 0 210.5 65.2 Q 213.1 63.6 214.75 60.85 Q 216.4 58.1 216.4 54.8 L 216.4 28.8 L 227.1 28.8 L 227.1 74.7 L 218.3 74.7 L 217.1 68 A 17.213 17.213 0 0 1 213.892 71.755 A 14.947 14.947 0 0 1 210.85 73.8 A 16.866 16.866 0 0 1 206.428 75.283 Q 204.485 75.661 202.263 75.696 A 29.005 29.005 0 0 1 201.8 75.7 A 25.122 25.122 0 0 1 197.173 75.305 Q 194.628 74.827 192.698 73.771 A 10.619 10.619 0 0 1 188.75 70.1 Q 186.122 65.955 185.44 59.398 A 47.382 47.382 0 0 1 185.2 54.5 Z M 320.3 74.7 L 320.3 1.2 L 338 1.2 A 73.62 73.62 0 0 1 348.852 1.941 Q 362.167 3.932 368.68 11.272 A 22.253 22.253 0 0 1 369.05 11.7 Q 377.9 22.2 377.9 36.7 A 46.952 46.952 0 0 1 375.958 50.348 A 42.727 42.727 0 0 1 374.1 55.35 A 30.31 30.31 0 0 1 364.164 67.536 A 37.863 37.863 0 0 1 361.55 69.3 A 33.329 33.329 0 0 1 352.326 73.131 Q 346.255 74.7 338.6 74.7 L 320.3 74.7 Z M 154 74.7 L 154 37.4 L 146.6 37.4 L 146.6 28.8 L 154 28.8 L 154 18.9 Q 154 9.9 158.35 4.95 A 13.95 13.95 0 0 1 165.477 0.667 Q 167.778 0.063 170.526 0.006 A 27.809 27.809 0 0 1 171.1 0 A 14.723 14.723 0 0 1 174.247 0.364 Q 175.714 0.685 177.316 1.291 A 29.409 29.409 0 0 1 178.8 1.9 L 176.7 12.1 Q 176 11.3 174.55 10.55 Q 173.1 9.8 171.4 9.8 A 7.255 7.255 0 0 0 168.316 10.409 Q 164.674 12.102 164.6 18.5 L 164.6 28.8 L 175.4 28.8 L 175.4 37.4 L 164.6 37.4 L 164.6 74.7 L 154 74.7 Z M 0 74.7 L 0 1.2 L 16.2 1.2 A 51.02 51.02 0 0 1 23.325 1.663 Q 26.983 2.18 29.914 3.276 A 19.087 19.087 0 0 1 36.25 7.05 A 19.254 19.254 0 0 1 42.178 18.13 A 27.993 27.993 0 0 1 42.6 23.1 A 32.366 32.366 0 0 1 41.857 30.252 Q 40.716 35.288 37.823 38.928 A 19.51 19.51 0 0 1 35.7 41.2 Q 30.199 46.223 20.44 47.241 A 50.538 50.538 0 0 1 15.2 47.5 L 11.3 47.5 L 11.3 74.7 L 0 74.7 Z M 124.7 36.5 L 124.9 28.8 L 135.2 28.8 L 135.2 74.7 L 125 74.7 L 124.8 66.6 Q 123.313 69.75 119.681 72.249 A 23.759 23.759 0 0 1 118.6 72.95 Q 114.1 75.7 108.5 75.7 Q 102.3 75.7 97.05 72.75 Q 91.8 69.8 88.65 64.35 A 23.297 23.297 0 0 1 85.808 55.982 A 30.225 30.225 0 0 1 85.5 51.6 A 31.941 31.941 0 0 1 86.104 45.246 A 24.358 24.358 0 0 1 88.25 39 Q 91 33.6 96.1 30.6 A 21.535 21.535 0 0 1 103.864 27.908 A 28.177 28.177 0 0 1 108.1 27.6 A 20.223 20.223 0 0 1 114.661 28.653 A 19.097 19.097 0 0 1 115.6 29 Q 119.1 30.4 121.5 32.45 Q 123.9 34.5 124.7 36.5 Z M 482.4 36.5 L 482.6 28.8 L 492.9 28.8 L 492.9 74.7 L 482.7 74.7 L 482.5 66.6 Q 481.013 69.75 477.381 72.249 A 23.759 23.759 0 0 1 476.3 72.95 Q 471.8 75.7 466.2 75.7 Q 460 75.7 454.75 72.75 Q 449.5 69.8 446.35 64.35 A 23.297 23.297 0 0 1 443.508 55.982 A 30.225 30.225 0 0 1 443.2 51.6 A 31.941 31.941 0 0 1 443.804 45.246 A 24.358 24.358 0 0 1 445.95 39 Q 448.7 33.6 453.8 30.6 A 21.535 21.535 0 0 1 461.564 27.908 A 28.177 28.177 0 0 1 465.8 27.6 A 20.223 20.223 0 0 1 472.361 28.653 A 19.097 19.097 0 0 1 473.3 29 Q 476.8 30.4 479.2 32.45 Q 481.6 34.5 482.4 36.5 Z M 655.4 36.5 L 655.6 28.8 L 665.9 28.8 L 665.9 74.7 L 655.7 74.7 L 655.5 66.6 Q 654.013 69.75 650.381 72.249 A 23.759 23.759 0 0 1 649.3 72.95 Q 644.8 75.7 639.2 75.7 Q 633 75.7 627.75 72.75 Q 622.5 69.8 619.35 64.35 A 23.297 23.297 0 0 1 616.508 55.982 A 30.225 30.225 0 0 1 616.2 51.6 A 31.941 31.941 0 0 1 616.804 45.246 A 24.358 24.358 0 0 1 618.95 39 Q 621.7 33.6 626.8 30.6 A 21.535 21.535 0 0 1 634.564 27.908 A 28.177 28.177 0 0 1 638.8 27.6 A 20.223 20.223 0 0 1 645.361 28.653 A 19.097 19.097 0 0 1 646.3 29 Q 649.8 30.4 652.2 32.45 Q 654.6 34.5 655.4 36.5 Z M 242.4 74.7 L 242.4 1.2 L 253.1 1.2 L 253.1 74.7 L 242.4 74.7 Z M 269.2 74.7 L 269.2 1.2 L 279.9 1.2 L 279.9 74.7 L 269.2 74.7 Z M 52 74.7 L 52 28.8 L 62.8 28.8 L 62.8 37.8 A 16.309 16.309 0 0 1 65.648 32.672 A 15.136 15.136 0 0 1 68 30.4 Q 71.6 27.6 76.2 27.6 Q 79.4 27.6 80.6 28.2 L 79.1 39.1 Q 78.2 38.5 75.2 38.5 Q 70.5 38.5 66.65 41.5 A 9.362 9.362 0 0 0 63.485 46.172 Q 62.972 47.778 62.843 49.743 A 20.757 20.757 0 0 0 62.8 51.1 L 62.8 74.7 L 52 74.7 Z M 680.1 74.7 L 680.1 28.8 L 690.9 28.8 L 690.9 37.8 A 16.309 16.309 0 0 1 693.748 32.672 A 15.136 15.136 0 0 1 696.1 30.4 Q 699.7 27.6 704.3 27.6 Q 707.5 27.6 708.7 28.2 L 707.2 39.1 Q 706.3 38.5 703.3 38.5 Q 698.6 38.5 694.75 41.5 A 9.362 9.362 0 0 0 691.585 46.172 Q 691.072 47.778 690.943 49.743 A 20.757 20.757 0 0 0 690.9 51.1 L 690.9 74.7 L 680.1 74.7 Z M 331.5 64.8 L 339.8 64.8 A 38.204 38.204 0 0 0 347.283 64.117 Q 351.554 63.263 354.797 61.339 A 18.389 18.389 0 0 0 359.85 56.95 A 28.224 28.224 0 0 0 365.49 44.242 A 38.955 38.955 0 0 0 366.1 37.2 A 34.859 34.859 0 0 0 365.139 28.794 A 25.018 25.018 0 0 0 359.8 18.3 A 19.346 19.346 0 0 0 351.336 12.713 Q 348.12 11.589 344.157 11.202 A 44.941 44.941 0 0 0 339.8 11 L 331.5 11 L 331.5 64.8 Z M 123.8 52.4 L 123.8 51.7 A 17.595 17.595 0 0 0 123.23 47.147 A 14.932 14.932 0 0 0 122 44 Q 120.2 40.6 117.1 38.7 Q 114 36.8 110.3 36.8 A 15.794 15.794 0 0 0 106.158 37.313 A 11.172 11.172 0 0 0 100.4 40.95 A 14.498 14.498 0 0 0 97.314 47.452 A 20.753 20.753 0 0 0 96.9 51.7 Q 96.9 58.269 100.217 62.387 A 13.583 13.583 0 0 0 100.35 62.55 A 11.177 11.177 0 0 0 106.973 66.39 A 16.933 16.933 0 0 0 110.3 66.7 A 13.539 13.539 0 0 0 115.922 65.552 A 13.17 13.17 0 0 0 119.9 62.75 A 13.322 13.322 0 0 0 123.607 55.129 A 18.589 18.589 0 0 0 123.8 52.4 Z M 481.5 52.4 L 481.5 51.7 A 17.595 17.595 0 0 0 480.93 47.147 A 14.932 14.932 0 0 0 479.7 44 Q 477.9 40.6 474.8 38.7 Q 471.7 36.8 468 36.8 A 15.794 15.794 0 0 0 463.858 37.313 A 11.172 11.172 0 0 0 458.1 40.95 A 14.498 14.498 0 0 0 455.014 47.452 A 20.753 20.753 0 0 0 454.6 51.7 Q 454.6 58.269 457.917 62.387 A 13.583 13.583 0 0 0 458.05 62.55 A 11.177 11.177 0 0 0 464.673 66.39 A 16.933 16.933 0 0 0 468 66.7 A 13.539 13.539 0 0 0 473.622 65.552 A 13.17 13.17 0 0 0 477.6 62.75 A 13.322 13.322 0 0 0 481.307 55.129 A 18.589 18.589 0 0 0 481.5 52.4 Z M 543 52.3 L 543 51.6 A 17.595 17.595 0 0 0 542.43 47.047 A 14.932 14.932 0 0 0 541.2 43.9 Q 539.4 40.5 536.3 38.6 Q 533.2 36.7 529.5 36.7 A 15.794 15.794 0 0 0 525.358 37.213 A 11.172 11.172 0 0 0 519.6 40.85 A 14.498 14.498 0 0 0 516.514 47.352 A 20.753 20.753 0 0 0 516.1 51.6 Q 516.1 58.169 519.417 62.287 A 13.583 13.583 0 0 0 519.55 62.45 A 11.177 11.177 0 0 0 526.173 66.29 A 16.933 16.933 0 0 0 529.5 66.6 A 13.539 13.539 0 0 0 535.122 65.452 A 13.17 13.17 0 0 0 539.1 62.65 A 13.322 13.322 0 0 0 542.807 55.029 A 18.589 18.589 0 0 0 543 52.3 Z M 654.5 52.4 L 654.5 51.7 A 17.595 17.595 0 0 0 653.93 47.147 A 14.932 14.932 0 0 0 652.7 44 Q 650.9 40.6 647.8 38.7 Q 644.7 36.8 641 36.8 A 15.794 15.794 0 0 0 636.858 37.313 A 11.172 11.172 0 0 0 631.1 40.95 A 14.498 14.498 0 0 0 628.014 47.452 A 20.753 20.753 0 0 0 627.6 51.7 Q 627.6 58.269 630.917 62.387 A 13.583 13.583 0 0 0 631.05 62.55 A 11.177 11.177 0 0 0 637.673 66.39 A 16.933 16.933 0 0 0 641 66.7 A 13.539 13.539 0 0 0 646.622 65.552 A 13.17 13.17 0 0 0 650.6 62.75 A 13.322 13.322 0 0 0 654.307 55.129 A 18.589 18.589 0 0 0 654.5 52.4 Z M 11.3 37.6 L 15.5 37.6 A 31.128 31.128 0 0 0 19.787 37.327 Q 25.226 36.568 27.8 33.7 Q 31.3 29.8 31.3 24.3 A 16.736 16.736 0 0 0 30.781 20.026 A 12.417 12.417 0 0 0 27.9 14.7 A 9.923 9.923 0 0 0 24.213 12.237 Q 22.584 11.585 20.529 11.276 A 27.25 27.25 0 0 0 16.5 11 L 11.3 11 L 11.3 37.6 Z" vector-effect="non-scaling-stroke"/></g></svg>